<svg width="35" height="35" viewBox="0 0 35 35" fill="none" xmlns="http://www.w3.org/2000/svg">
<circle cx="17.5" cy="17.5" r="17.5" fill="#384359"/>
<path d="M12.5814 26H9.26429V15.3176H12.5814V26ZM10.9211 13.8604C9.86036 13.8604 9 12.9819 9 11.9211C9 11.4116 9.2024 10.923 9.56267 10.5627C9.92294 10.2024 10.4116 10 10.9211 10C11.4306 10 11.9192 10.2024 12.2795 10.5627C12.6397 10.923 12.8421 11.4116 12.8421 11.9211C12.8421 12.9819 11.9814 13.8604 10.9211 13.8604ZM24.9964 26H21.6864V20.7999C21.6864 19.5606 21.6614 17.9712 19.9618 17.9712C18.2371 17.9712 17.9729 19.3177 17.9729 20.7106V26H14.6593V15.3176H17.8407V16.7748H17.8871C18.33 15.9355 19.4118 15.0498 21.0257 15.0498C24.3829 15.0498 25 17.2605 25 20.132V26H24.9964Z" fill="white"/>
</svg>
