<svg width="35" height="35" viewBox="0 0 35 35" fill="none" xmlns="http://www.w3.org/2000/svg">
<circle cx="17.5" cy="17.5" r="17.5" fill="#384359"/>
<path d="M26.2201 13.2173C26.0108 12.4233 25.3941 11.798 24.611 11.5858C23.1917 11.2002 17.5004 11.2002 17.5004 11.2002C17.5004 11.2002 11.8091 11.2002 10.3898 11.5858C9.60673 11.798 8.99001 12.4233 8.7807 13.2173C8.40039 14.6564 8.40039 17.6591 8.40039 17.6591C8.40039 17.6591 8.40039 20.6617 8.7807 22.1008C8.99001 22.8948 9.60673 23.494 10.3898 23.7063C11.8091 24.0919 17.5004 24.0919 17.5004 24.0919C17.5004 24.0919 23.1917 24.0919 24.611 23.7063C25.3941 23.494 26.0108 22.8948 26.2201 22.1008C26.6004 20.6617 26.6004 17.6591 26.6004 17.6591C26.6004 17.6591 26.6004 14.6564 26.2201 13.2173ZM15.639 20.3852V14.9329L20.3958 17.6591L15.639 20.3852Z" fill="white"/>
</svg>
